#!OML:ASF E:\motion texture\Top Level 1\Subject 1\Session 1\male.ASF
:FULLY-SPECIFIED
:DEGREES
616
root -46.3917 17.8397 4.59923 327.668 -96.6341 -323.301
lowerback -1.99775 3.12873 2.94624
upperback -0.754363 4.0992 0.647658
thorax 0.503027 2.04288 -0.878305
lowerneck -15.7396 -4.59144 -7.26478
upperneck 22.0376 -6.0568 5.25366
head 9.99364 -2.9091 2.22891
rclavicle -2.92524e-014 6.26172e-015
rhumerus -21.6433 18.7141 -92.6424
rradius 70.7785
rwrist 15.3762
rhand -16.3413 -23.0448
rfingers 7.12502
rthumb 9.8709 -52.7934
lclavicle -2.92524e-014 6.26172e-015
lhumerus -30.8815 23.4711 78.7752
lradius 24.2516
lwrist -33.5398
lhand -14.4735 20.7296
lfingers 7.12502
lthumb 11.6725 50.3845
rfemur -13.5405 -3.65353 24.9293
rtibia 50.5087
rfoot -1.9471 -12.1591
rtoes -5.03372
lfemur -19.1699 -1.84064 -13.5636
ltibia 16.7101
lfoot -0.974943 1.53722
ltoes -2.22804
617
root -46.5169 17.846 4.60529 329.245 -96.4823 -325.027
lowerback -1.92428 2.95891 2.66227
upperback -0.703632 3.88195 0.594154
thorax 0.490852 1.93554 -0.784686
lowerneck -15.3785 -4.9028 -7.56093
upperneck 21.7995 -6.49547 5.49363
head 9.89186 -3.11661 2.30595
rclavicle 3.04886e-014 2.68359e-015
rhumerus -21.8373 18.7833 -92.8842
rradius 69.7527
rwrist 15.2548
rhand -16.2952 -22.9675
rfingers 7.12502
rthumb 9.91538 -52.7139
lclavicle 3.04886e-014 2.68359e-015
lhumerus -30.4022 24.3561 78.3845
lradius 23.3524
lwrist -34.9988
lhand -14.3554 20.6415
lfingers 7.12502
lthumb 11.7864 50.2899
rfemur -14.3783 -3.95998 24.485
rtibia 51.4425
rfoot -1.5845 -12.5448
rtoes -4.71647
lfemur -18.595 -1.82791 -14.0071
ltibia 16.7717
lfoot -1.17489 1.38888
ltoes -1.89829
618
root -46.641 17.8524 4.61075 330.824 -96.335 -326.75
lowerback -1.85087 2.78354 2.37997
upperback -0.654738 3.65672 0.54553
thorax 0.477982 1.82402 -0.686559
lowerneck -14.9929 -5.23546 -7.87242
upperneck 21.5449 -6.96328 5.73663
head 9.78572 -3.3398 2.38347
rclavicle 2.20899e-014 1.99779e-014
rhumerus -22.0149 18.8324 -93.1184
rradius 68.6357
rwrist 15.1209
rhand -16.2477 -22.8911
rfingers 7.12502
rthumb 9.96118 -52.6354
lclavicle 2.20899e-014 1.99779e-014
lhumerus -29.9393 25.2615 77.9931
lradius 22.4894
lwrist -36.4715
lhand -14.2405 20.5486
lfingers 7.12502
lthumb 11.8972 50.1906
rfemur -15.2142 -4.2533 24.0589
rtibia 52.2706
rfoot -1.2844 -12.9134
rtoes -4.32534
lfemur -18.0193 -1.81931 -14.4363
ltibia 16.8211
lfoot -1.39417 1.25554
ltoes -1.59629
619
root -46.764 17.8587 4.6155 332.385 -96.1933 -328.453
lowerback -1.78042 2.60262 2.10023
upperback -0.607067 3.42338 0.502961
thorax 0.466774 1.70827 -0.583035
lowerneck -14.5828 -5.58751 -8.20062
upperneck 21.2736 -7.45821 5.98576
head 9.67568 -3.5776 2.46316
rclavicle -7.24943e-015 -2.98177e-015
rhumerus -22.1773 18.8632 -93.3431
rradius 67.4329
rwrist 14.9705
rhand -16.1971 -22.8183
rfingers 7.12502
rthumb 10.01 -52.5602
lclavicle -7.24943e-015 -2.98177e-015
lhumerus -29.4956 26.1895 77.5981
lradius 21.6612
lwrist -37.9717
lhand -14.1428 20.413
lfingers 7.12502
lthumb 11.9914 50.0495
rfemur -16.0439 -4.53116 23.6544
rtibia 52.9838
rfoot -1.0477 -13.2589
rtoes -3.85746
lfemur -17.4446 -1.81527 -14.8478
ltibia 16.8596
lfoot -1.63304 1.13883
ltoes -1.31368
620
root -46.9403 17.8446 4.66607 353.989 -95.155 -350.513
lowerback -1.45094 2.42866 0.145234
upperback -0.427719 3.23556 -0.351963
thorax 0.402657 1.61681 -0.383245
lowerneck -15.2199 -4.477 -8.1085
upperneck 21.8234 -6.02541 6.48312
head 9.88508 -2.84307 2.81474
rclavicle 1.47225e-015 7.95139e-016
rhumerus -23.4344 20.0272 -94.0236
rradius 71.8235
rwrist 14.6615
rhand -15.4457 -22.6773
rfingers 7.12502
rthumb 10.7349 -52.383
lclavicle 1.47225e-015 7.95139e-016
lhumerus -28.564 25.8492 77.0304
lradius 18.588
lwrist -36.568
lhand -13.9955 20.786
lfingers 7.12502
lthumb 12.1335 50.4142
rfemur -18.4041 -7.34721 20.2102
rtibia 62.364
rfoot 4.2457 -15.1481
rtoes -1.74723
lfemur -16.5187 -0.781994 -18.1524
ltibia 16.9383
lfoot -1.39078 -0.627721
ltoes 1.24415
621
root -47.061 17.8556 4.66987 354.369 -95.0028 -351.057
lowerback -1.31101 2.19954 0.0229027
upperback -0.42527 2.93165 -0.330503
thorax 0.317145 1.46484 -0.304754
lowerneck -14.7776 -4.95736 -8.56713
upperneck 21.6762 -6.68892 6.74821
head 9.83246 -3.17062 2.8974
rclavicle -3.57315e-014 2.98177e-015
rhumerus -23.6557 20.164 -94.2467
rradius 70.5331
rwrist 14.359
rhand -15.3661 -22.3784
rfingers 7.12502
rthumb 10.8117 -52.0801
lclavicle -3.57315e-014 2.98177e-015
lhumerus -28.0405 27.781 76.1712
lradius 17.1332
lwrist -40.1314
lhand -13.5307 20.602
lfingers 7.12502
lthumb 12.5816 50.2031
rfemur -19.3111 -7.75407 20.0244
rtibia 62.9012
rfoot 3.6391 -15.9608
rtoes -1.17572
lfemur -15.8722 -0.837091 -18.376
ltibia 16.9296
lfoot -1.82875 -0.754083
ltoes 1.19333
622
root -47.1763 17.8686 4.67263 351.488 -94.9167 -348.352
lowerback -1.13 1.96717 0.194577
upperback -0.394144 2.62 -0.236458
thorax 0.24918 1.30922 -0.315673
lowerneck -14.4594 -5.49311 -8.93262
upperneck 21.5905 -7.41151 6.85883
head 9.8261 -3.53186 2.90017
rclavicle 2.26552e-014 2.18663e-015
rhumerus -23.8298 20.2186 -94.4667
rradius 69.1401
rwrist 14.1597
rhand -15.2064 -22.0364
rfingers 7.12502
rthumb 10.9657 -51.73
lclavicle 2.26552e-014 2.18663e-015
lhumerus -27.6786 30.3033 75.056
lradius 15.8271
lwrist -44.3958
lhand -13.4244 20.1406
lfingers 7.12502
lthumb 12.6841 49.7354
rfemur -20.1878 -8.04411 20.2073
rtibia 63.2807
rfoot 3.05015 -16.6858
rtoes -0.605153
lfemur -15.3014 -0.922847 -18.2102
ltibia 17.0443
lfoot -2.25023 -0.795882
ltoes 1.31704
623
root -47.2935 17.8841 4.67233 348.35 -94.7615 -345.418
lowerback -0.984661 1.71865 0.324751
upperback -0.348875 2.28773 -0.138955
thorax 0.21287 1.14327 -0.297286
lowerneck -14.016 -6.00066 -9.61866
upperneck 21.4424 -8.14323 7.42544
head 9.81363 -3.8792 3.11739
rclavicle -1.1281e-014 3.97569e-016
rhumerus -24.0044 20.1543 -94.6658
rradius 67.6179
rwrist 13.9473
rhand -14.9815 -21.6268
rfingers 7.12502
rthumb 11.1826 -51.3088
lclavicle -1.1281e-014 3.97569e-016
lhumerus -27.539 33.3205 73.7091
lradius 14.6755
lwrist -49.3428
lhand -12.9886 19.8085
lfingers 7.12502
lthumb 13.1042 49.3768
rfemur -20.9328 -8.32885 20.391
rtibia 63.4203
rfoot 2.41881 -17.7051
rtoes 0.992699
lfemur -14.6686 -1.15898 -18.0434
ltibia 17.107
lfoot -2.71634 -0.730245
ltoes 1.23505
624
root -47.4106 17.8933 4.67589 347.607 -94.9213 -344.723
lowerback -1.02443 1.55665 0.366536
upperback -0.333034 2.07104 -0.0902304
thorax 0.249359 1.03502 -0.271973
lowerneck -13.502 -6.54821 -10.0783
upperneck 21.2047 -8.90951 7.67081
head 9.74341 -4.26001 3.17998
rclavicle -1.78906e-015 5.96354e-016
rhumerus -24.0002 20.4021 -94.8239
rradius 65.8026
rwrist 13.3969
rhand -14.556 -22.2895
rfingers 7.12502
rthumb 11.593 -51.9488
lclavicle -1.78906e-015 5.96354e-016
lhumerus -27.617 36.5281 72.2083
lradius 13.7635
lwrist -54.4433
lhand -12.5511 19.3814
lfingers 7.12502
lthumb 13.5259 48.9221
rfemur -21.8674 -8.33745 20.4412
rtibia 63.4534
rfoot 1.83019 -18.0487
rtoes 1.75739
lfemur -14.1309 -1.20327 -18.0747
ltibia 17.1246
lfoot -3.17593 -0.530189
ltoes 0.807019
625
root -47.5164 17.9055 4.67079 345.361 -94.979 -342.553
lowerback -0.967304 1.3685 0.389417
upperback -0.29536 1.81988 0.0266666
thorax 0.250919 0.90956 -0.169421
lowerneck -13.0641 -7.13628 -10.6375
upperneck 21.0267 -9.73067 7.99071
head 9.73016 -4.66504 3.27522
rclavicle -1.70396e-014 1.13307e-014
rhumerus -23.8728 20.5401 -94.9114
rradius 63.7368
rwrist 12.9165
rhand -14.4347 -22.3467
rfingers 7.12502
rthumb 11.7099 -51.9995
lclavicle -1.70396e-014 1.13307e-014
lhumerus -28.0611 40.5377 70.3265
lradius 12.9246
lwrist -60.2597
lhand -12.346 18.9326
lfingers 7.12502
lthumb 13.7236 48.46
rfemur -22.8158 -8.28638 20.6974
rtibia 63.3732
rfoot 0.994938 -18.4115
rtoes 1.90177
lfemur -13.7055 -1.41994 -17.8529
ltibia 17.2497
lfoot -3.58339 -0.214478
ltoes 0.831026
